<svg xmlns="http://www.w3.org/2000/svg" xmlns:xlink="http://www.w3.org/1999/xlink" width="365" zoomAndPan="magnify" viewBox="0 0 273.75 103.5" height="138" preserveAspectRatio="xMidYMid meet" version="1.0"><defs><clipPath id="25fc58cc42"><path d="M 119.019531 0 L 182 0 L 182 102.089844 L 119.019531 102.089844 Z M 119.019531 0 " clip-rule="nonzero"/></clipPath><clipPath id="81ff9b38d4"><path d="M 178 0 L 241 0 L 241 102.089844 L 178 102.089844 Z M 178 0 " clip-rule="nonzero"/></clipPath><clipPath id="4e04f12181"><path d="M 146 0 L 214 0 L 214 102.089844 L 146 102.089844 Z M 146 0 " clip-rule="nonzero"/></clipPath><clipPath id="b0584185ed"><path d="M 205 0 L 272.585938 0 L 272.585938 102.089844 L 205 102.089844 Z M 205 0 " clip-rule="nonzero"/></clipPath><clipPath id="793562d700"><path d="M 0.535156 0 L 64 0 L 64 102.089844 L 0.535156 102.089844 Z M 0.535156 0 " clip-rule="nonzero"/></clipPath><clipPath id="45c9857f85"><path d="M 59 0 L 123 0 L 123 102.089844 L 59 102.089844 Z M 59 0 " clip-rule="nonzero"/></clipPath><clipPath id="4bf073cf58"><path d="M 27 0 L 96 0 L 96 102.089844 L 27 102.089844 Z M 27 0 " clip-rule="nonzero"/></clipPath><clipPath id="baa36771fc"><path d="M 87 0 L 154.097656 0 L 154.097656 102.089844 L 87 102.089844 Z M 87 0 " clip-rule="nonzero"/></clipPath></defs><g clip-path="url(#25fc58cc42)"><path fill="#aac4fc" d="M 119.019531 0.00390625 L 154.46875 0.00390625 L 181.894531 102.351562 L 146.445312 102.351562 Z M 119.019531 0.00390625 " fill-opacity="1" fill-rule="evenodd"/></g><g clip-path="url(#81ff9b38d4)"><path fill="#aac4fc" d="M 178.109375 0.00390625 L 213.5625 0.00390625 L 240.984375 102.351562 L 205.535156 102.351562 Z M 178.109375 0.00390625 " fill-opacity="1" fill-rule="evenodd"/></g><g clip-path="url(#4e04f12181)"><path fill="#ffffff" d="M 178.109375 0.00390625 L 213.5625 0.00390625 L 181.894531 102.351562 L 146.445312 102.351562 Z M 178.109375 0.00390625 " fill-opacity="1" fill-rule="evenodd"/></g><g clip-path="url(#b0584185ed)"><path fill="#ffffff" d="M 237.199219 0.00390625 L 272.652344 0.00390625 L 240.984375 102.351562 L 205.535156 102.351562 Z M 237.199219 0.00390625 " fill-opacity="1" fill-rule="evenodd"/></g><g clip-path="url(#793562d700)"><path fill="#aac4fc" d="M 0.535156 0.00390625 L 35.984375 0.00390625 L 63.410156 102.351562 L 27.957031 102.351562 Z M 0.535156 0.00390625 " fill-opacity="1" fill-rule="evenodd"/></g><g clip-path="url(#45c9857f85)"><path fill="#aac4fc" d="M 59.625 0.00390625 L 95.078125 0.00390625 L 122.5 102.351562 L 87.046875 102.351562 Z M 59.625 0.00390625 " fill-opacity="1" fill-rule="evenodd"/></g><g clip-path="url(#4bf073cf58)"><path fill="#ffffff" d="M 59.625 0.00390625 L 95.078125 0.00390625 L 63.410156 102.351562 L 27.957031 102.351562 Z M 59.625 0.00390625 " fill-opacity="1" fill-rule="evenodd"/></g><g clip-path="url(#baa36771fc)"><path fill="#ffffff" d="M 118.714844 0.00390625 L 154.167969 0.00390625 L 122.5 102.351562 L 87.046875 102.351562 Z M 118.714844 0.00390625 " fill-opacity="1" fill-rule="evenodd"/></g></svg>