<svg xmlns="http://www.w3.org/2000/svg" xmlns:xlink="http://www.w3.org/1999/xlink" width="180" zoomAndPan="magnify" viewBox="0 0 135 89.999999" height="120" preserveAspectRatio="xMidYMid meet" version="1.0"><defs><clipPath id="4dcec891a8"><path d="M 0 0 L 55 0 L 55 89.25 L 0 89.25 Z M 0 0 " clip-rule="nonzero"/></clipPath><clipPath id="17ddb3e23c"><path d="M 51 0 L 107 0 L 107 89.25 L 51 89.25 Z M 51 0 " clip-rule="nonzero"/></clipPath><clipPath id="77b8b2e66a"><path d="M 23 0 L 83 0 L 83 89.25 L 23 89.25 Z M 23 0 " clip-rule="nonzero"/></clipPath><clipPath id="f0ba29d037"><path d="M 75 0 L 134.25 0 L 134.25 89.25 L 75 89.25 Z M 75 0 " clip-rule="nonzero"/></clipPath><clipPath id="608f5f2c11"><path d="M 12.757812 22.214844 L 35.285156 22.214844 L 35.285156 44.746094 L 12.757812 44.746094 Z M 12.757812 22.214844 " clip-rule="nonzero"/></clipPath><clipPath id="40512abb18"><path d="M 24.019531 22.214844 C 17.800781 22.214844 12.757812 27.257812 12.757812 33.480469 C 12.757812 39.703125 17.800781 44.746094 24.019531 44.746094 C 30.242188 44.746094 35.285156 39.703125 35.285156 33.480469 C 35.285156 27.257812 30.242188 22.214844 24.019531 22.214844 Z M 24.019531 22.214844 " clip-rule="nonzero"/></clipPath></defs><g clip-path="url(#4dcec891a8)"><path fill="#005c78" d="M 0 0.00390625 L 30.992188 0.00390625 L 54.96875 89.480469 L 23.976562 89.480469 Z M 0 0.00390625 " fill-opacity="1" fill-rule="evenodd"/></g><g clip-path="url(#17ddb3e23c)"><path fill="#005c78" d="M 51.660156 0.00390625 L 82.652344 0.00390625 L 106.625 89.480469 L 75.632812 89.480469 Z M 51.660156 0.00390625 " fill-opacity="1" fill-rule="evenodd"/></g><g clip-path="url(#77b8b2e66a)"><path fill="#006989" d="M 51.660156 0.00390625 L 82.652344 0.00390625 L 54.96875 89.480469 L 23.976562 89.480469 Z M 51.660156 0.00390625 " fill-opacity="1" fill-rule="evenodd"/></g><g clip-path="url(#f0ba29d037)"><path fill="#006989" d="M 103.316406 0.00390625 L 134.308594 0.00390625 L 106.625 89.480469 L 75.632812 89.480469 Z M 103.316406 0.00390625 " fill-opacity="1" fill-rule="evenodd"/></g><g clip-path="url(#608f5f2c11)"><g clip-path="url(#40512abb18)"><path fill="#005c78" d="M 12.757812 22.214844 L 35.285156 22.214844 L 35.285156 44.746094 L 12.757812 44.746094 Z M 12.757812 22.214844 " fill-opacity="1" fill-rule="nonzero"/></g></g></svg>