<svg xmlns="http://www.w3.org/2000/svg" xmlns:xlink="http://www.w3.org/1999/xlink" width="318" zoomAndPan="magnify" viewBox="0 0 238.5 89.999999" height="120" preserveAspectRatio="xMidYMid meet" version="1.0"><defs><clipPath id="16a1849cc0"><path d="M 103.367188 0.09375 L 159 0.09375 L 159 89.15625 L 103.367188 89.15625 Z M 103.367188 0.09375 " clip-rule="nonzero"/></clipPath><clipPath id="a60fe43249"><path d="M 154 0.09375 L 210 0.09375 L 210 89.15625 L 154 89.15625 Z M 154 0.09375 " clip-rule="nonzero"/></clipPath><clipPath id="dca347293d"><path d="M 127 0.09375 L 186 0.09375 L 186 89.15625 L 127 89.15625 Z M 127 0.09375 " clip-rule="nonzero"/></clipPath><clipPath id="a74d98d98f"><path d="M 178 0.09375 L 237.335938 0.09375 L 237.335938 89.15625 L 178 89.15625 Z M 178 0.09375 " clip-rule="nonzero"/></clipPath><clipPath id="d7f3ce198a"><path d="M 0 0.09375 L 55 0.09375 L 55 89.15625 L 0 89.15625 Z M 0 0.09375 " clip-rule="nonzero"/></clipPath><clipPath id="7bf19c0035"><path d="M 51 0.09375 L 107 0.09375 L 107 89.15625 L 51 89.15625 Z M 51 0.09375 " clip-rule="nonzero"/></clipPath><clipPath id="b813abe1cb"><path d="M 23 0.09375 L 83 0.09375 L 83 89.15625 L 23 89.15625 Z M 23 0.09375 " clip-rule="nonzero"/></clipPath><clipPath id="a9eb7185e1"><path d="M 75 0.09375 L 133.96875 0.09375 L 133.96875 89.15625 L 75 89.15625 Z M 75 0.09375 " clip-rule="nonzero"/></clipPath></defs><g clip-path="url(#16a1849cc0)"><path fill="#005c78" d="M 103.367188 0.0976562 L 134.292969 0.0976562 L 158.21875 89.386719 L 127.292969 89.386719 Z M 103.367188 0.0976562 " fill-opacity="1" fill-rule="evenodd"/></g><g clip-path="url(#a60fe43249)"><path fill="#005c78" d="M 154.917969 0.0976562 L 185.84375 0.0976562 L 209.769531 89.386719 L 178.839844 89.386719 Z M 154.917969 0.0976562 " fill-opacity="1" fill-rule="evenodd"/></g><g clip-path="url(#dca347293d)"><path fill="#006989" d="M 154.917969 0.0976562 L 185.84375 0.0976562 L 158.21875 89.386719 L 127.292969 89.386719 Z M 154.917969 0.0976562 " fill-opacity="1" fill-rule="evenodd"/></g><g clip-path="url(#a74d98d98f)"><path fill="#006989" d="M 206.46875 0.0976562 L 237.394531 0.0976562 L 209.769531 89.386719 L 178.839844 89.386719 Z M 206.46875 0.0976562 " fill-opacity="1" fill-rule="evenodd"/></g><g clip-path="url(#d7f3ce198a)"><path fill="#005c78" d="M 0 0.0976562 L 30.925781 0.0976562 L 54.851562 89.386719 L 23.925781 89.386719 Z M 0 0.0976562 " fill-opacity="1" fill-rule="evenodd"/></g><g clip-path="url(#7bf19c0035)"><path fill="#005c78" d="M 51.550781 0.0976562 L 82.480469 0.0976562 L 106.402344 89.386719 L 75.476562 89.386719 Z M 51.550781 0.0976562 " fill-opacity="1" fill-rule="evenodd"/></g><g clip-path="url(#b813abe1cb)"><path fill="#006989" d="M 51.550781 0.0976562 L 82.480469 0.0976562 L 54.851562 89.386719 L 23.925781 89.386719 Z M 51.550781 0.0976562 " fill-opacity="1" fill-rule="evenodd"/></g><g clip-path="url(#a9eb7185e1)"><path fill="#006989" d="M 103.101562 0.0976562 L 134.027344 0.0976562 L 106.402344 89.386719 L 75.476562 89.386719 Z M 103.101562 0.0976562 " fill-opacity="1" fill-rule="evenodd"/></g></svg>